<svg width="63" height="63" viewBox="0 0 63 63" fill="none" xmlns="http://www.w3.org/2000/svg">
<path d="M29.5312 33.2691V44.625C29.5312 45.7117 30.4132 46.5938 31.5 46.5938C32.5867 46.5938 33.4688 45.7117 33.4688 44.625V33.2691C40.131 32.3031 45.2812 26.6123 45.2812 19.6875C45.2812 12.0881 39.0994 5.90625 31.5 5.90625C23.9006 5.90625 17.7188 12.0881 17.7188 19.6875C17.7188 26.6123 22.869 32.3031 29.5312 33.2691ZM31.5 9.84375C36.9285 9.84375 41.3438 14.259 41.3438 19.6875C41.3438 25.116 36.9285 29.5312 31.5 29.5312C26.0715 29.5312 21.6562 25.116 21.6562 19.6875C21.6562 14.259 26.0715 9.84375 31.5 9.84375ZM51.8438 47.25C51.8438 52.8623 43.0973 57.0938 31.5 57.0938C19.9027 57.0938 11.1562 52.8623 11.1562 47.25C11.1562 43.1182 15.6713 39.7374 23.2339 38.207C24.3075 37.997 25.3391 38.6794 25.5543 39.7451C25.7722 40.8109 25.0818 41.8504 24.0161 42.0657C18.1597 43.2522 15.0938 45.5726 15.0938 47.25C15.0938 49.6571 21.4856 53.1562 31.5 53.1562C41.5144 53.1562 47.9062 49.6571 47.9062 47.25C47.9062 45.5726 44.8429 43.2522 38.9839 42.0657C37.9182 41.8504 37.2304 40.8109 37.4457 39.7451C37.6609 38.6794 38.703 37.997 39.7661 38.207C47.3287 39.7374 51.8438 43.1182 51.8438 47.25Z" fill="#2BCCA2"/>
</svg>
