<svg width="76" height="76" viewBox="0 0 76 76" fill="none" xmlns="http://www.w3.org/2000/svg">
<path d="M48.2917 18.9999C48.2917 24.6839 43.6839 29.2916 38 29.2916C32.3162 29.2916 27.7084 24.6839 27.7084 18.9999C27.7084 13.316 32.3162 8.70825 38 8.70825C43.6839 8.70825 48.2917 13.316 48.2917 18.9999Z" stroke="#F6C74E" stroke-width="1.5"/>
<path d="M57.7917 53.8333C57.7917 57.2394 55.8629 60.5473 52.2937 63.0965C48.7293 65.6428 43.6833 67.2917 38 67.2917C32.3168 67.2917 27.2708 65.6428 23.7063 63.0965C20.1372 60.5473 18.2084 57.2394 18.2084 53.8333C18.2084 50.4273 20.1372 47.1194 23.7063 44.5702C27.2708 42.0239 32.3168 40.375 38 40.375C43.6833 40.375 48.7293 42.0239 52.2937 44.5702C55.8629 47.1194 57.7917 50.4273 57.7917 53.8333Z" stroke="#F6C74E" stroke-width="1.5"/>
</svg>
