<svg width="63" height="63" viewBox="0 0 63 63" fill="none" xmlns="http://www.w3.org/2000/svg">
<path d="M44.625 8.53125H43.9688V7.875C43.9688 6.78825 43.0867 5.90625 42 5.90625C40.9133 5.90625 40.0312 6.78825 40.0312 7.875V8.53125H22.9688V7.875C22.9688 6.78825 22.0868 5.90625 21 5.90625C19.9132 5.90625 19.0312 6.78825 19.0312 7.875V8.53125H18.375C11.5001 8.53125 5.90625 14.1251 5.90625 21V44.625C5.90625 51.4999 11.5001 57.0938 18.375 57.0938H44.625C51.4999 57.0938 57.0938 51.4999 57.0938 44.625V21C57.0938 14.1251 51.4999 8.53125 44.625 8.53125ZM18.375 12.4688H19.0312V15.75C19.0312 16.8368 19.9132 17.7188 21 17.7188C22.0868 17.7188 22.9688 16.8368 22.9688 15.75V12.4688H40.0312V15.75C40.0312 16.8368 40.9133 17.7188 42 17.7188C43.0867 17.7188 43.9688 16.8368 43.9688 15.75V12.4688H44.625C49.329 12.4688 53.1562 16.296 53.1562 21V21.6562H9.84375V21C9.84375 16.296 13.671 12.4688 18.375 12.4688ZM44.625 53.1562H18.375C13.671 53.1562 9.84375 49.329 9.84375 44.625V25.5938H53.1562V44.625C53.1562 49.329 49.329 53.1562 44.625 53.1562ZM44.625 34.125C44.625 35.574 43.449 36.75 42 36.75C40.551 36.75 39.375 35.574 39.375 34.125C39.375 32.676 40.551 31.5 42 31.5C43.449 31.5 44.625 32.676 44.625 34.125ZM34.125 34.125C34.125 35.574 32.949 36.75 31.5 36.75C30.051 36.75 28.875 35.574 28.875 34.125C28.875 32.676 30.051 31.5 31.5 31.5C32.949 31.5 34.125 32.676 34.125 34.125ZM23.625 34.125C23.625 35.574 22.449 36.75 21 36.75C19.551 36.75 18.375 35.574 18.375 34.125C18.375 32.676 19.551 31.5 21 31.5C22.449 31.5 23.625 32.676 23.625 34.125ZM44.625 44.625C44.625 46.074 43.449 47.25 42 47.25C40.551 47.25 39.375 46.074 39.375 44.625C39.375 43.176 40.551 42 42 42C43.449 42 44.625 43.176 44.625 44.625ZM34.125 44.625C34.125 46.074 32.949 47.25 31.5 47.25C30.051 47.25 28.875 46.074 28.875 44.625C28.875 43.176 30.051 42 31.5 42C32.949 42 34.125 43.176 34.125 44.625ZM23.625 44.625C23.625 46.074 22.449 47.25 21 47.25C19.551 47.25 18.375 46.074 18.375 44.625C18.375 43.176 19.551 42 21 42C22.449 42 23.625 43.176 23.625 44.625Z" fill="#2BCCA2"/>
</svg>
