<svg width="63" height="63" viewBox="0 0 63 63" fill="none" xmlns="http://www.w3.org/2000/svg">
<path d="M47.5072 20.9029L51.2689 17.1413C52.038 16.3722 52.038 15.1252 51.2689 14.3561C50.4998 13.587 49.2529 13.587 48.4838 14.3561L44.604 18.2359C41.4514 15.8288 37.6346 14.2563 33.4688 13.8809V9.84375H36.75C37.8367 9.84375 38.7188 8.96175 38.7188 7.875C38.7188 6.78825 37.8367 5.90625 36.75 5.90625H26.25C25.1632 5.90625 24.2812 6.78825 24.2812 7.875C24.2812 8.96175 25.1632 9.84375 26.25 9.84375H29.5312V13.8809C18.5115 14.881 9.84375 24.1605 9.84375 35.4375C9.84375 47.3786 19.5589 57.0938 31.5 57.0938C43.4411 57.0938 53.1562 47.3786 53.1562 35.4375C53.1562 29.841 51.0037 24.7485 47.5072 20.9029ZM31.5 53.1562C21.7297 53.1562 13.7812 45.2078 13.7812 35.4375C13.7812 25.6672 21.7297 17.7188 31.5 17.7188C41.2703 17.7188 49.2188 25.6672 49.2188 35.4375C49.2188 45.2078 41.2703 53.1562 31.5 53.1562ZM38.2856 40.7689C38.9655 41.6194 38.829 42.8556 37.9785 43.5355C37.6136 43.8269 37.1805 43.9688 36.75 43.9688C36.1725 43.9688 35.6003 43.7167 35.2118 43.2311L29.9618 36.6686C29.6835 36.3195 29.5286 35.8864 29.5286 35.4375V26.25C29.5286 25.1632 30.4106 24.2812 31.4974 24.2812C32.5841 24.2812 33.4661 25.1632 33.4661 26.25V34.7473L38.2856 40.7689Z" fill="#2BCCA2"/>
</svg>
