<svg width="63" height="63" viewBox="0 0 63 63" fill="none" xmlns="http://www.w3.org/2000/svg">
<path d="M31.5 33.4702C38.3749 33.4702 43.9688 27.8763 43.9688 21.0015C43.9688 14.1266 38.3749 8.53271 31.5 8.53271C24.6251 8.53271 19.0312 14.1266 19.0312 21.0015C19.0312 27.8763 24.6251 33.4702 31.5 33.4702ZM31.5 12.4702C36.204 12.4702 40.0312 16.2975 40.0312 21.0015C40.0312 25.7055 36.204 29.5327 31.5 29.5327C26.796 29.5327 22.9688 25.7055 22.9688 21.0015C22.9688 16.2975 26.796 12.4702 31.5 12.4702ZM49.2188 45.6765V47.9497C49.2188 50.1206 48.4234 52.2023 46.9823 53.8114C46.5964 54.2472 46.0556 54.4677 45.5148 54.4677C45.045 54.4677 44.5777 54.3022 44.2023 53.9662C43.3912 53.2417 43.3231 51.9975 44.0476 51.1864C44.8403 50.2992 45.2787 49.1493 45.2787 47.9497V45.6765C45.2787 42.3979 43.1052 39.563 39.9946 38.7833C39.4853 38.6547 38.955 38.7254 38.5218 38.9695C34.1591 41.4003 28.8146 41.3898 24.486 38.9801C24.0319 38.7228 23.5017 38.6571 23.0003 38.7805C19.8871 39.5627 17.7135 42.3979 17.7135 45.6765V47.9497C17.7135 49.1493 18.1518 50.2992 18.9446 51.1864C19.6691 51.9975 19.6009 53.2417 18.7898 53.9662C17.9813 54.688 16.7344 54.6225 16.0099 53.8114C14.5687 52.2023 13.7734 50.1179 13.7734 47.9497V45.6765C13.7734 40.5919 17.1701 36.1871 22.0342 34.9612C23.5042 34.5884 25.1082 34.8011 26.4128 35.5492C29.5392 37.2869 33.4241 37.2974 36.5872 35.5386C37.8735 34.801 39.4721 34.5858 40.9499 34.9638C45.8219 36.187 49.2188 40.5919 49.2188 45.6765ZM45.3942 10.2941C45.7565 9.27039 46.8799 8.73219 47.9062 9.09444C51.8306 10.4804 54.4688 14.2106 54.4688 18.3765C54.4688 21.1747 53.2718 23.8471 51.1875 25.7135C50.8095 26.0495 50.3422 26.2146 49.875 26.2146C49.3343 26.2146 48.7961 25.9941 48.4076 25.5584C47.6831 24.7472 47.7514 23.5031 48.5625 22.7786C49.8146 21.6603 50.5312 20.0565 50.5312 18.3765C50.5312 15.8775 48.9484 13.6385 46.5938 12.8064C45.5674 12.4441 45.032 11.3179 45.3942 10.2941ZM57.0938 38.9381V40.8335C57.0938 41.9202 56.2117 42.8022 55.125 42.8022C54.0383 42.8022 53.1562 41.9202 53.1562 40.8335V38.9381C53.1562 36.3577 51.4474 34.1264 49.0009 33.5122C47.9482 33.2471 47.3051 32.1786 47.5703 31.1234C47.838 30.0681 48.9116 29.4304 49.959 29.6929C54.1616 30.7482 57.0938 34.5491 57.0938 38.9381ZM11.8125 26.8789C9.72825 25.0125 8.53125 22.3401 8.53125 19.5419C8.53125 15.376 11.1694 11.6459 15.0938 10.2599C16.128 9.89761 17.2435 10.4358 17.6058 11.4596C17.968 12.4859 17.4326 13.6095 16.4062 13.9718C14.0516 14.8039 12.4688 17.0429 12.4688 19.5419C12.4688 21.2193 13.1854 22.8231 14.4375 23.944C15.2486 24.6685 15.3169 25.913 14.5924 26.7241C14.2066 27.1599 13.6658 27.3804 13.125 27.3804C12.6578 27.3804 12.1879 27.2149 11.8125 26.8789ZM13.9991 34.6776C11.5526 35.2919 9.84375 37.5232 9.84375 40.1035V42.0015C9.84375 43.0882 8.96175 43.9702 7.875 43.9702C6.78825 43.9702 5.90625 43.0882 5.90625 42.0015V40.1061C5.90625 35.7171 8.84105 31.9162 13.041 30.8609C14.0937 30.6037 15.1646 31.2364 15.4297 32.2917C15.6949 33.3417 15.0544 34.4125 13.9991 34.6776Z" fill="#2BCCA2"/>
</svg>
