<svg width="58" height="58" viewBox="0 0 58 58" fill="none" xmlns="http://www.w3.org/2000/svg">
<path d="M18.6742 6.64575C16.0351 6.64575 13.8958 8.78513 13.8958 11.4242V24.1666C13.8958 32.5084 20.6581 39.2708 28.9999 39.2708C37.3418 39.2708 44.1041 32.5084 44.1041 24.1666V11.4242C44.1041 8.78513 41.9646 6.64575 39.3256 6.64575H18.6742Z" stroke="#2BCCA2" stroke-width="1.5"/>
<path d="M29 41.0833V43.4999" stroke="#2BCCA2" stroke-width="1.5" stroke-linecap="round"/>
<path d="M36.2501 45.3125H21.7501C20.0817 45.3125 18.7292 46.665 18.7292 48.3333C18.7292 50.0017 20.0817 51.3542 21.7501 51.3542H36.2501C37.9184 51.3542 39.2709 50.0017 39.2709 48.3333C39.2709 46.665 37.9184 45.3125 36.2501 45.3125Z" stroke="#2BCCA2" stroke-width="1.5"/>
<path d="M13.2917 12.0833C9.95495 12.0833 7.25 14.7882 7.25 18.1249V18.9186C7.25 20.7315 7.97014 22.4701 9.25204 23.752L14.5 28.9999" stroke="#2BCCA2" stroke-width="1.5" stroke-linecap="round" stroke-linejoin="round"/>
<path d="M44.7083 12.0833C48.045 12.0833 50.75 14.7882 50.75 18.1249V18.9186C50.75 20.7315 50.0298 22.4701 48.748 23.752L43.5 28.9999" stroke="#2BCCA2" stroke-width="1.5" stroke-linecap="round" stroke-linejoin="round"/>
</svg>
