<svg width="24" height="24" viewBox="0 0 24 24" fill="none" xmlns="http://www.w3.org/2000/svg">
<path d="M14.384 14.4699L14.384 14.4701L14.5259 15.4764L13.6133 15.0308C13.613 15.0307 13.6128 15.0306 13.6126 15.0305C12.595 14.5335 11.4051 14.5335 10.3876 15.0305C10.3873 15.0306 10.3871 15.0307 10.3869 15.0308L9.47427 15.4764L9.61617 14.4701C9.61617 14.4701 9.61618 14.4701 9.61618 14.47C9.77426 13.349 9.40684 12.2173 8.6196 11.4029C8.6195 11.4028 8.61941 11.4027 8.61931 11.4026L7.91322 10.672L8.91423 10.496C10.0295 10.2999 10.9922 9.60051 11.5234 8.60038L11.5234 8.60035L12.0001 7.70275L12.4767 8.60007C13.008 9.60076 13.971 10.2999 15.086 10.496C15.086 10.496 15.086 10.496 15.086 10.496L16.087 10.672L15.3811 11.4024C14.5932 12.2171 14.226 13.3491 14.384 14.4699ZM17.3598 16.8602L17.3585 16.8595C17.3589 16.8598 17.3594 16.86 17.3599 16.8602L17.3598 16.8602ZM19.193 11.2183C19.1928 11.2182 19.1926 11.2182 19.1924 11.2182L19.193 11.2183Z" stroke="#36B9CC" stroke-width="5.35"/>
</svg>
