<svg width="76" height="76" viewBox="0 0 76 76" fill="none" xmlns="http://www.w3.org/2000/svg">
<path d="M53.8334 8.70825H22.1667C14.7339 8.70825 8.70837 14.7338 8.70837 22.1666V53.8333C8.70837 61.2661 14.7339 67.2916 22.1667 67.2916H53.8334C61.2662 67.2916 67.2917 61.2661 67.2917 53.8333V22.1666C67.2917 14.7338 61.2662 8.70825 53.8334 8.70825Z" stroke="#2BCCA2" stroke-width="1.5"/>
<path fill-rule="evenodd" clip-rule="evenodd" d="M52.9182 28.3757C52.9182 27.0641 51.8548 26.0007 50.5432 26.0007H41.5863C40.2746 26.0007 39.2113 27.0641 39.2113 28.3757C39.2113 29.6874 40.2746 30.7507 41.5863 30.7507H44.8093L37.1596 38.4006L32.6297 33.8707C31.7021 32.9432 30.1984 32.9432 29.2709 33.8707L19.1947 43.947C18.2671 44.8745 18.2671 46.3784 19.1947 47.3059C20.1221 48.2334 21.6259 48.2334 22.5534 47.3059L30.9503 38.9089L35.48 43.4388C36.4075 44.3663 37.9113 44.3663 38.8389 43.4388L48.1682 34.1095V37.3325C48.1682 38.6441 49.2315 39.7075 50.5432 39.7075C51.8548 39.7075 52.9182 38.6441 52.9182 37.3325V28.3757Z" fill="#2BCCA2"/>
</svg>
