<svg width="32" height="32" viewBox="0 0 32 32" fill="none" xmlns="http://www.w3.org/2000/svg">
<path d="M10.3029 3.66666C8.84685 3.66666 7.6665 4.847 7.6665 6.30302V13.3333C7.6665 17.9357 11.3975 21.6667 15.9998 21.6667C20.6022 21.6667 24.3332 17.9357 24.3332 13.3333V6.30302C24.3332 4.847 23.1528 3.66666 21.6968 3.66666H10.3029Z" stroke="#36B9CC" stroke-width="1.5"/>
<path d="M16 22.6667V24" stroke="#36B9CC" stroke-width="1.5" stroke-linecap="round"/>
<path d="M20.0002 25H12.0002C11.0797 25 10.3335 25.7462 10.3335 26.6667C10.3335 27.5871 11.0797 28.3333 12.0002 28.3333H20.0002C20.9206 28.3333 21.6668 27.5871 21.6668 26.6667C21.6668 25.7462 20.9206 25 20.0002 25Z" stroke="#36B9CC" stroke-width="1.5"/>
<path d="M7.33333 6.66666C5.49239 6.66666 4 8.15904 4 9.99999V10.4379C4 11.4381 4.39732 12.3973 5.10457 13.1046L8 16" stroke="#36B9CC" stroke-width="1.5" stroke-linecap="round" stroke-linejoin="round"/>
<path d="M24.6667 6.66666C26.5076 6.66666 28 8.15904 28 9.99999V10.4379C28 11.4381 27.6027 12.3973 26.8955 13.1046L24 16" stroke="#36B9CC" stroke-width="1.5" stroke-linecap="round" stroke-linejoin="round"/>
</svg>
