<svg width="76" height="76" viewBox="0 0 76 76" fill="none" xmlns="http://www.w3.org/2000/svg">
<path d="M56.9999 15.0417H18.9999C13.316 15.0417 8.70825 19.6495 8.70825 25.3334V57.0001C8.70825 62.684 13.316 67.2917 18.9999 67.2917H56.9999C62.6838 67.2917 67.2916 62.684 67.2916 57.0001V25.3334C67.2916 19.6495 62.6838 15.0417 56.9999 15.0417Z" stroke="#36B9CC" stroke-width="1.5"/>
<path d="M21.375 8.70825V19.7916" stroke="#36B9CC" stroke-width="1.5" stroke-linecap="round"/>
<path d="M11.875 29.2917H64.125" stroke="#36B9CC" stroke-width="1.5" stroke-linecap="round"/>
<path d="M56.2083 8.70825V19.7916" stroke="#36B9CC" stroke-width="1.5" stroke-linecap="round"/>
<path d="M26.125 44.3333C27.4367 44.3333 28.5 43.2699 28.5 41.9583C28.5 40.6466 27.4367 39.5833 26.125 39.5833C24.8133 39.5833 23.75 40.6466 23.75 41.9583C23.75 43.2699 24.8133 44.3333 26.125 44.3333Z" fill="#36B9CC"/>
<path d="M38.7917 44.3333C40.1034 44.3333 41.1667 43.2699 41.1667 41.9583C41.1667 40.6466 40.1034 39.5833 38.7917 39.5833C37.4801 39.5833 36.4167 40.6466 36.4167 41.9583C36.4167 43.2699 37.4801 44.3333 38.7917 44.3333Z" fill="#36B9CC"/>
<path d="M51.4583 44.3333C52.7699 44.3333 53.8333 43.2699 53.8333 41.9583C53.8333 40.6466 52.7699 39.5833 51.4583 39.5833C50.1466 39.5833 49.0833 40.6466 49.0833 41.9583C49.0833 43.2699 50.1466 44.3333 51.4583 44.3333Z" fill="#36B9CC"/>
<path d="M26.125 57C27.4367 57 28.5 55.9367 28.5 54.625C28.5 53.3133 27.4367 52.25 26.125 52.25C24.8133 52.25 23.75 53.3133 23.75 54.625C23.75 55.9367 24.8133 57 26.125 57Z" fill="#36B9CC"/>
<path d="M38.7917 57C40.1034 57 41.1667 55.9367 41.1667 54.625C41.1667 53.3133 40.1034 52.25 38.7917 52.25C37.4801 52.25 36.4167 53.3133 36.4167 54.625C36.4167 55.9367 37.4801 57 38.7917 57Z" fill="#36B9CC"/>
<path d="M51.4583 57C52.7699 57 53.8333 55.9367 53.8333 54.625C53.8333 53.3133 52.7699 52.25 51.4583 52.25C50.1466 52.25 49.0833 53.3133 49.0833 54.625C49.0833 55.9367 50.1466 57 51.4583 57Z" fill="#36B9CC"/>
</svg>
