<svg width="41" height="41" viewBox="0 0 41 41" fill="none" xmlns="http://www.w3.org/2000/svg">
<path d="M31.0128 2.10256H30.4872V1.57692C30.4872 0.706462 29.7807 0 28.9103 0C28.0398 0 27.3333 0.706462 27.3333 1.57692V2.10256H13.6667V1.57692C13.6667 0.706462 12.9602 0 12.0897 0C11.2193 0 10.5128 0.706462 10.5128 1.57692V2.10256H9.98718C4.48056 2.10256 0 6.58313 0 12.0897V31.0128C0 36.5194 4.48056 41 9.98718 41H31.0128C36.5194 41 41 36.5194 41 31.0128V12.0897C41 6.58313 36.5194 2.10256 31.0128 2.10256ZM9.98718 5.25641H10.5128V7.88462C10.5128 8.75508 11.2193 9.46154 12.0897 9.46154C12.9602 9.46154 13.6667 8.75508 13.6667 7.88462V5.25641H27.3333V7.88462C27.3333 8.75508 28.0398 9.46154 28.9103 9.46154C29.7807 9.46154 30.4872 8.75508 30.4872 7.88462V5.25641H31.0128C34.7806 5.25641 37.8462 8.32195 37.8462 12.0897V12.6154H3.15385V12.0897C3.15385 8.32195 6.21938 5.25641 9.98718 5.25641ZM31.0128 37.8462H9.98718C6.21938 37.8462 3.15385 34.7806 3.15385 31.0128V15.7692H37.8462V31.0128C37.8462 34.7806 34.7806 37.8462 31.0128 37.8462ZM31.0128 22.6026C31.0128 23.7632 30.0709 24.7051 28.9103 24.7051C27.7496 24.7051 26.8077 23.7632 26.8077 22.6026C26.8077 21.4419 27.7496 20.5 28.9103 20.5C30.0709 20.5 31.0128 21.4419 31.0128 22.6026ZM22.6026 22.6026C22.6026 23.7632 21.6606 24.7051 20.5 24.7051C19.3394 24.7051 18.3974 23.7632 18.3974 22.6026C18.3974 21.4419 19.3394 20.5 20.5 20.5C21.6606 20.5 22.6026 21.4419 22.6026 22.6026ZM14.1923 22.6026C14.1923 23.7632 13.2504 24.7051 12.0897 24.7051C10.9291 24.7051 9.98718 23.7632 9.98718 22.6026C9.98718 21.4419 10.9291 20.5 12.0897 20.5C13.2504 20.5 14.1923 21.4419 14.1923 22.6026ZM31.0128 31.0128C31.0128 32.1734 30.0709 33.1154 28.9103 33.1154C27.7496 33.1154 26.8077 32.1734 26.8077 31.0128C26.8077 29.8522 27.7496 28.9103 28.9103 28.9103C30.0709 28.9103 31.0128 29.8522 31.0128 31.0128ZM22.6026 31.0128C22.6026 32.1734 21.6606 33.1154 20.5 33.1154C19.3394 33.1154 18.3974 32.1734 18.3974 31.0128C18.3974 29.8522 19.3394 28.9103 20.5 28.9103C21.6606 28.9103 22.6026 29.8522 22.6026 31.0128ZM14.1923 31.0128C14.1923 32.1734 13.2504 33.1154 12.0897 33.1154C10.9291 33.1154 9.98718 32.1734 9.98718 31.0128C9.98718 29.8522 10.9291 28.9103 12.0897 28.9103C13.2504 28.9103 14.1923 29.8522 14.1923 31.0128Z" fill="white"/>
</svg>
