<svg width="39" height="42" viewBox="0 0 39 42" fill="none" xmlns="http://www.w3.org/2000/svg">
<path d="M22.6875 0.84375H16.3125C14.2587 0.84375 12.5938 2.50869 12.5938 4.5625C12.5938 6.61631 14.2587 8.28125 16.3125 8.28125H22.6875C24.7413 8.28125 26.4062 6.61631 26.4062 4.5625C26.4062 2.50869 24.7413 0.84375 22.6875 0.84375Z" stroke="white" stroke-width="1.5"/>
<path fill-rule="evenodd" clip-rule="evenodd" d="M11.0987 3.57031C11.0339 3.91195 11 4.26453 11 4.62503C11 5.37609 11.1472 6.09277 11.4143 6.7478C10.2848 6.78848 9.31942 6.8565 8.47291 6.97031C6.5117 7.23398 5.67235 7.68969 5.11849 8.24353C4.56465 8.79737 4.10894 9.63674 3.84527 11.5979C3.56928 13.6508 3.5625 16.403 3.5625 20.5V24.75C3.5625 28.847 3.56928 31.5991 3.84527 33.6521C4.10894 35.6132 4.56465 36.4526 5.11849 37.0066C5.67235 37.5604 6.5117 38.0162 8.47291 38.2797C10.5258 38.5557 13.278 38.5625 17.375 38.5625H21.625C25.722 38.5625 28.4741 38.5557 30.527 38.2797C32.4882 38.0162 33.3276 37.5604 33.8816 37.0066C34.4353 36.4526 34.8909 35.6132 35.1547 33.6521C35.4307 31.5991 35.4375 28.847 35.4375 24.75V20.5C35.4375 16.403 35.4307 13.6508 35.1547 11.5979C34.8909 9.63674 34.4353 8.79737 33.8816 8.24353C33.3276 7.68969 32.4882 7.23398 30.527 6.97031C29.6807 6.8565 28.7153 6.78848 27.5856 6.7478C27.8527 6.09277 28 5.37609 28 4.62503C28 4.26453 27.966 3.91195 27.9012 3.57031C31.9383 3.73086 34.4039 4.25809 36.1353 5.98962C38.625 8.47921 38.625 12.4862 38.625 20.5V24.75C38.625 32.7638 38.625 36.7709 36.1353 39.2604C33.6459 41.75 29.6388 41.75 21.625 41.75H17.375C9.36112 41.75 5.35419 41.75 2.86459 39.2604C0.375 36.7709 0.375 32.7638 0.375 24.75V20.5C0.375 12.4862 0.375 8.47921 2.86459 5.98962C4.59612 4.25809 7.06163 3.73086 11.0987 3.57031Z" fill="white"/>
<path d="M15.25 23.6875L18.4375 26.875L24.8125 20.5" stroke="white" stroke-width="1.5" stroke-linecap="round" stroke-linejoin="round"/>
</svg>
