<svg width="40" height="40" viewBox="0 0 40 40" fill="none" xmlns="http://www.w3.org/2000/svg">
<path d="M22.5 4.58325H17.5C15.8892 4.58325 14.5834 5.88909 14.5834 7.49992C14.5834 9.11075 15.8892 10.4166 17.5 10.4166H22.5C24.1109 10.4166 25.4167 9.11075 25.4167 7.49992C25.4167 5.88909 24.1109 4.58325 22.5 4.58325Z" stroke="#2BCCA2" stroke-width="1.5"/>
<path d="M13.4108 6.72168C13.3599 6.98963 13.3333 7.26616 13.3333 7.54891C13.3333 8.13798 13.4488 8.70008 13.6583 9.21383C12.7724 9.24571 12.0152 9.29908 11.3513 9.38835C9.8131 9.59515 9.15478 9.95256 8.72038 10.3869C8.286 10.8213 7.92858 11.4797 7.72178 13.0179C7.50532 14.628 7.5 16.7865 7.5 19.9999V23.3332C7.5 26.5465 7.50532 28.7052 7.72178 30.3152C7.92858 31.8534 8.286 32.5117 8.72038 32.9462C9.15478 33.3805 9.8131 33.738 11.3513 33.9447C12.9614 34.1612 15.12 34.1665 18.3333 34.1665H21.6667C24.88 34.1665 27.0385 34.1612 28.6487 33.9447C30.1868 33.738 30.8452 33.3805 31.2797 32.9462C31.714 32.5117 32.0713 31.8534 32.2782 30.3152C32.4947 28.7052 32.5 26.5465 32.5 23.3332V19.9999C32.5 16.7865 32.4947 14.628 32.2782 13.0179C32.0713 11.4797 31.714 10.8213 31.2797 10.3869C30.8452 9.95256 30.1868 9.59515 28.6487 9.38835C27.9848 9.29908 27.2277 9.24571 26.3417 9.21383C26.5512 8.70008 26.6667 8.13798 26.6667 7.54891C26.6667 7.26616 26.64 6.98963 26.5892 6.72168C29.7555 6.8476 31.6893 7.26111 33.0473 8.61918C35 10.5718 35 13.7145 35 19.9999V23.3332C35 29.6185 35 32.7614 33.0473 34.7139C31.0948 36.6665 27.952 36.6665 21.6667 36.6665H18.3333C12.0479 36.6665 8.90525 36.6665 6.95262 34.7139C5 32.7614 5 29.6185 5 23.3332V19.9999C5 13.7145 5 10.5718 6.95262 8.61918C8.31068 7.26111 10.2444 6.8476 13.4108 6.72168Z" fill="#2BCCA2"/>
<path d="M19.9995 18.4226V26.9014M24.2389 22.6619H15.7601H24.2389Z" stroke="#2BCCA2" stroke-width="1.5" stroke-linecap="round"/>
</svg>
