<svg width="63" height="63" viewBox="0 0 63 63" fill="none" xmlns="http://www.w3.org/2000/svg">
<path d="M35.4375 7.21875H27.5625C25.0254 7.21875 22.9688 9.27544 22.9688 11.8125C22.9688 14.3496 25.0254 16.4062 27.5625 16.4062H35.4375C37.9746 16.4062 40.0312 14.3496 40.0312 11.8125C40.0312 9.27544 37.9746 7.21875 35.4375 7.21875Z" stroke="#6597FF" stroke-width="1.5"/>
<path fill-rule="evenodd" clip-rule="evenodd" d="M21.122 10.5869C21.0419 11.0089 21 11.4445 21 11.8898C21 12.8176 21.1818 13.7029 21.5118 14.512C20.1165 14.5623 18.924 14.6463 17.8783 14.7869C15.4556 15.1126 14.4188 15.6756 13.7346 16.3597C13.0505 17.0439 12.4875 18.0807 12.1618 20.5034C11.8209 23.0393 11.8125 26.4391 11.8125 31.5001V36.7501C11.8125 41.8111 11.8209 45.2107 12.1618 47.7467C12.4875 50.1693 13.0505 51.2062 13.7346 51.8906C14.4188 52.5746 15.4556 53.1377 17.8783 53.4632C20.4143 53.8042 23.8139 53.8126 28.875 53.8126H34.125C39.186 53.8126 42.5856 53.8042 45.1216 53.4632C47.5443 53.1377 48.5811 52.5746 49.2655 51.8906C49.9495 51.2062 50.5123 50.1693 50.8381 47.7467C51.1791 45.2107 51.1875 41.8111 51.1875 36.7501V31.5001C51.1875 26.4391 51.1791 23.0393 50.8381 20.5034C50.5123 18.0807 49.9495 17.0439 49.2655 16.3597C48.5811 15.6756 47.5443 15.1126 45.1216 14.7869C44.0761 14.6463 42.8836 14.5623 41.4881 14.512C41.8181 13.7029 42 12.8176 42 11.8898C42 11.4445 41.958 11.0089 41.8779 10.5869C46.8649 10.7852 49.9107 11.4365 52.0495 13.5755C55.125 16.6508 55.125 21.6006 55.125 31.5001V36.7501C55.125 46.6495 55.125 51.5994 52.0495 54.6746C48.9744 57.7501 44.0244 57.7501 34.125 57.7501H28.875C18.9755 57.7501 14.0258 57.7501 10.9504 54.6746C7.875 51.5994 7.875 46.6495 7.875 36.7501V31.5001C7.875 21.6006 7.875 16.6508 10.9504 13.5755C13.0893 11.4365 16.135 10.7852 21.122 10.5869Z" fill="#6597FF"/>
<path d="M26.25 35.4375L30.1875 39.375L38.0625 31.5" stroke="#6597FF" stroke-width="1.5" stroke-linecap="round" stroke-linejoin="round"/>
</svg>
