<svg width="25" height="25" viewBox="0 0 25 25" fill="none" xmlns="http://www.w3.org/2000/svg">
<path d="M16.4062 12.5C16.4062 14.6574 14.6574 16.4062 12.5 16.4062M8.59375 12.5C8.59375 10.3426 10.3426 8.59375 12.5 8.59375M10.1562 19.2613C10.9086 19.4343 11.6933 19.5312 12.5 19.5312C18.1091 19.5312 22.6562 14.8438 22.6562 12.5C22.6562 11.4559 21.7538 9.94653 20.257 8.59375M15.2344 5.83601C14.3644 5.60246 13.4473 5.46875 12.5 5.46875C6.89086 5.46875 2.34375 10.1562 2.34375 12.5C2.34375 13.5312 3.22393 15.016 4.6875 16.3557M5.46875 19.5312L19.5312 5.46875" stroke="white" stroke-linecap="round" stroke-linejoin="round"/>
</svg>
