<svg width="89" height="110" viewBox="0 0 89 110" fill="none" xmlns="http://www.w3.org/2000/svg">
<path d="M53.0289 88.1061C49.5519 95.0011 39.7073 95.0011 36.2303 88.1061L17.1297 50.2292C13.9747 43.9728 18.5221 36.5868 25.529 36.5868H63.7302C70.7371 36.5868 75.2845 43.9728 72.1295 50.2292L53.0289 88.1061Z" stroke="#36B9CC" stroke-width="4.47946"/>
<path fill-rule="evenodd" clip-rule="evenodd" d="M39.2627 41.9326C39.2627 41.7347 39.1023 41.5742 38.9044 41.5742H23.4048C21.508 41.5742 20.2575 43.5496 21.0689 45.2641L38.5805 82.2655C38.744 82.6111 39.2627 82.4946 39.2627 82.1122V41.9326ZM50.1964 81.6924C50.1964 82.0747 50.7151 82.1913 50.8787 81.8457L68.1915 45.2641C69.003 43.5496 67.7524 41.5742 65.8556 41.5742H50.5548C50.3568 41.5742 50.1964 41.7347 50.1964 41.9326V81.6924Z" fill="#36B9CC"/>
<path d="M18.2433 5.70957V26H14.0626V5.70957H18.2433ZM26.3261 14.3776V17.6386H17.1006V14.3776H26.3261ZM27.3016 5.70957V8.98447H17.1006V5.70957H27.3016ZM37.8381 9.17957L32.3195 26H27.874L35.4133 5.70957H38.2422L37.8381 9.17957ZM42.423 26L36.8905 9.17957L36.4445 5.70957H39.3014L46.8824 26H42.423ZM42.1721 18.4468V21.7217H31.4555V18.4468H42.1721ZM53.0988 5.70957H56.6385L61.8505 20.6069L67.0624 5.70957H70.6021L63.2719 26H60.429L53.0988 5.70957ZM51.1896 5.70957H54.7154L55.3564 20.2306V26H51.1896V5.70957ZM68.9856 5.70957H72.5253V26H68.3445V20.2306L68.9856 5.70957Z" fill="#36B9CC"/>
</svg>
