<svg width="520" height="520" viewBox="0 0 520 520" fill="none" xmlns="http://www.w3.org/2000/svg">
<circle cx="259.675" cy="259.675" r="192.725" stroke="#1A355E" stroke-width="19.5"/>
<g clip-path="url(#clip0_1_13721)">
<path d="M222.802 383.168L138.211 215.423C124.239 187.715 144.378 155.005 175.409 155.005L344.591 155.005C375.623 155.005 395.762 187.715 381.789 215.423L297.198 383.168C281.8 413.704 238.201 413.704 222.802 383.168Z" stroke="#1A355E" stroke-width="19.8382"/>
<path fill-rule="evenodd" clip-rule="evenodd" d="M236.229 178.681C236.229 177.804 235.519 177.094 234.642 177.094H165.999C157.599 177.094 152.06 185.842 155.654 193.435L233.208 357.304C233.932 358.835 236.229 358.319 236.229 356.625V178.681ZM284.651 354.764C284.651 356.458 286.949 356.974 287.673 355.443L364.346 193.435C367.94 185.842 362.401 177.094 354.001 177.094H286.238C285.362 177.094 284.651 177.804 284.651 178.681V354.764Z" fill="#1A355E"/>
</g>
<defs>
<clipPath id="clip0_1_13721">
<rect width="313.444" height="312.65" fill="white" transform="translate(103.35 122.2)"/>
</clipPath>
</defs>
</svg>
