<svg width="51" height="51" viewBox="0 0 51 51" fill="none" xmlns="http://www.w3.org/2000/svg">
<path d="M44.524 18.7729C42.0335 11.6626 35.8519 6.5817 28.3932 5.51282C26.521 5.24507 24.4809 5.24507 22.6088 5.51282C15.1501 6.5817 8.97058 11.6626 6.4822 18.7622C5.70658 20.9064 5.31348 23.1737 5.31348 25.4984C5.31348 27.8232 5.70655 30.0906 6.47792 32.2262C8.96842 39.3365 15.1501 44.4173 22.6088 45.4862C23.5502 45.6201 24.5235 45.6881 25.4989 45.6881C26.4743 45.6881 27.4474 45.6201 28.3909 45.4862C35.8497 44.4173 42.0292 39.3365 44.5175 32.2369C45.2932 30.0927 45.6864 27.8253 45.6864 25.5006C45.6864 23.1758 45.2954 20.9085 44.524 18.7729ZM41.9124 18.0652H34.2241C33.4803 14.5526 32.2033 11.2227 30.4183 8.11596C35.5353 9.55034 39.7194 13.182 41.9124 18.0652ZM32.9385 25.5006C32.9385 27.2813 32.76 29.06 32.4668 30.8152H18.5352C18.2419 29.0642 18.0635 27.2835 18.0635 25.5006C18.0635 23.7198 18.2419 21.9455 18.5352 20.1902H32.4688C32.76 21.9391 32.9385 23.7177 32.9385 25.5006ZM27.6174 7.58471C29.7212 10.8083 31.1939 14.3274 32.0417 18.0652H18.9623C19.808 14.3337 21.2787 10.8126 23.3845 7.58471C24.0773 7.50396 24.7806 7.43809 25.501 7.43809C26.2214 7.43809 26.9247 7.50396 27.6174 7.58471ZM20.5859 8.11596C18.7988 11.227 17.5195 14.559 16.7779 18.0652H9.08955C11.2783 13.1841 15.4646 9.55034 20.5859 8.11596ZM8.2609 20.1902H16.3911C16.117 21.9434 15.9406 23.7198 15.9406 25.5006C15.9406 27.2856 16.117 29.0642 16.3932 30.8152H8.26505C7.72955 29.1089 7.44055 27.3281 7.44055 25.5006C7.43843 23.6752 7.7254 21.8987 8.2609 20.1902ZM9.09383 32.9402H16.782C17.5258 36.4486 18.803 39.7784 20.588 42.8831C15.4688 41.4508 11.2868 37.8214 9.09383 32.9402ZM23.3845 43.4143C21.2808 40.1907 19.8102 36.6739 18.9623 32.9402H32.0397C31.1939 36.6717 29.7212 40.1886 27.6174 43.4143C26.2234 43.5758 24.7785 43.5758 23.3845 43.4143ZM30.4161 42.8852C32.2011 39.7785 33.4804 36.4465 34.222 32.9424H41.9102C39.7193 37.8192 35.5352 41.4508 30.4161 42.8852ZM42.739 30.8152H34.6108C34.8871 29.06 35.0635 27.2813 35.0635 25.5006C35.0635 23.7177 34.8872 21.9412 34.613 20.1902H42.7411C43.2766 21.8945 43.5635 23.6731 43.5635 25.5006C43.5635 27.326 43.2766 29.1067 42.739 30.8152Z" fill="white"/>
</svg>
