<svg width="65" height="65" viewBox="0 0 65 65" fill="none" xmlns="http://www.w3.org/2000/svg">
<path d="M20.9279 7.448C17.9703 7.448 15.5728 9.84558 15.5728 12.8031V27.0834C15.5728 36.432 23.1513 44.0105 32.4998 44.0105C41.8485 44.0105 49.4269 36.432 49.4269 27.0834V12.8031C49.4269 9.84558 47.0292 7.448 44.0717 7.448H20.9279Z" stroke="#F6C74E" stroke-width="1.5"/>
<path d="M32.5 46.0417V48.7501" stroke="#F6C74E" stroke-width="1.5" stroke-linecap="round"/>
<path d="M40.6252 50.7812H24.3752C22.5054 50.7812 20.9897 52.297 20.9897 54.1667C20.9897 56.0364 22.5054 57.5521 24.3752 57.5521H40.6252C42.4949 57.5521 44.0106 56.0364 44.0106 54.1667C44.0106 52.297 42.4949 50.7812 40.6252 50.7812Z" stroke="#F6C74E" stroke-width="1.5"/>
<path d="M14.8958 13.5417C11.1564 13.5417 8.125 16.5732 8.125 20.3126V21.2021C8.125 23.2337 8.93206 25.1821 10.3687 26.6187L16.25 32.5001" stroke="#F6C74E" stroke-width="1.5" stroke-linecap="round" stroke-linejoin="round"/>
<path d="M50.1042 13.5417C53.8436 13.5417 56.875 16.5732 56.875 20.3126V21.2021C56.875 23.2337 56.0679 25.1821 54.6314 26.6187L48.75 32.5001" stroke="#F6C74E" stroke-width="1.5" stroke-linecap="round" stroke-linejoin="round"/>
<path d="M21.3649 8.39307C18.519 8.39307 16.2119 10.7002 16.2119 13.5461V27.2875C16.2119 36.2834 23.5044 43.5758 32.5002 43.5758C41.4961 43.5758 48.7886 36.2834 48.7886 27.2875V13.5461C48.7886 10.7002 46.4814 8.39307 43.6355 8.39307H21.3649Z" stroke="#F6C74E" stroke-width="1.5"/>
<path d="M32.5 45.5305V48.1367" stroke="#F6C74E" stroke-width="1.5" stroke-linecap="round"/>
<path d="M40.3188 50.0913H24.682C22.8828 50.0913 21.4243 51.5498 21.4243 53.349C21.4243 55.1481 22.8828 56.6066 24.682 56.6066H40.3188C42.1179 56.6066 43.5764 55.1481 43.5764 53.349C43.5764 51.5498 42.1179 50.0913 40.3188 50.0913Z" stroke="#F6C74E" stroke-width="1.5"/>
<path d="M15.5603 14.2571C11.9619 14.2571 9.04492 17.1741 9.04492 20.7724V21.6283C9.04492 23.5833 9.82152 25.4582 11.2039 26.8406L16.8633 32.5" stroke="#F6C74E" stroke-width="1.5" stroke-linecap="round" stroke-linejoin="round"/>
<path d="M49.4398 14.2571C53.0381 14.2571 55.9551 17.1741 55.9551 20.7724V21.6283C55.9551 23.5833 55.1785 25.4582 53.7962 26.8406L48.1367 32.5" stroke="#F6C74E" stroke-width="1.5" stroke-linecap="round" stroke-linejoin="round"/>
</svg>
