<svg width="32" height="32" viewBox="0 0 32 32" fill="none" xmlns="http://www.w3.org/2000/svg">
<path d="M10.303 3.6665C8.84697 3.6665 7.66663 4.84685 7.66663 6.30286V13.3332C7.66663 17.9356 11.3976 21.6665 16 21.6665C20.6024 21.6665 24.3333 17.9356 24.3333 13.3332V6.30286C24.3333 4.84685 23.1529 3.6665 21.6969 3.6665H10.303Z" stroke="#36B9CC" stroke-width="1.5"/>
<path d="M16 22.6665V23.9998" stroke="#36B9CC" stroke-width="1.5" stroke-linecap="round"/>
<path d="M20 25H12C11.0796 25 10.3334 25.7462 10.3334 26.6667C10.3334 27.5871 11.0796 28.3333 12 28.3333H20C20.9205 28.3333 21.6667 27.5871 21.6667 26.6667C21.6667 25.7462 20.9205 25 20 25Z" stroke="#36B9CC" stroke-width="1.5"/>
<path d="M7.33333 6.6665C5.49239 6.6665 4 8.15889 4 9.99984V10.4377C4 11.4379 4.39732 12.3972 5.10457 13.1044L8 15.9998" stroke="#36B9CC" stroke-width="1.5" stroke-linecap="round" stroke-linejoin="round"/>
<path d="M24.6667 6.6665C26.5076 6.6665 28 8.15889 28 9.99984V10.4377C28 11.4379 27.6027 12.3972 26.8955 13.1044L24 15.9998" stroke="#36B9CC" stroke-width="1.5" stroke-linecap="round" stroke-linejoin="round"/>
</svg>
