<svg width="51" height="51" viewBox="0 0 51 51" fill="none" xmlns="http://www.w3.org/2000/svg">
<path d="M25.4989 26.562C31.3575 26.562 36.1239 21.7956 36.1239 15.937C36.1239 10.0784 31.3575 5.31201 25.4989 5.31201C19.6403 5.31201 14.8739 10.0784 14.8739 15.937C14.8739 21.7956 19.6403 26.562 25.4989 26.562ZM25.4989 7.43701C30.1867 7.43701 33.9989 11.2493 33.9989 15.937C33.9989 20.6248 30.1867 24.437 25.4989 24.437C20.8112 24.437 16.9989 20.6248 16.9989 15.937C16.9989 11.2493 20.8112 7.43701 25.4989 7.43701ZM41.4364 38.1794V40.3278C41.4364 42.1829 40.7586 43.9594 39.5303 45.3322C39.32 45.5659 39.0309 45.687 38.7376 45.687C38.4847 45.687 38.2318 45.5977 38.03 45.4171C37.5922 45.024 37.5561 44.3546 37.9471 43.9169C38.829 42.9351 39.3135 41.6601 39.3135 40.3299V38.1815C39.3135 34.722 37.0143 31.7258 33.7206 30.897C33.0491 30.7292 32.3286 30.8205 31.7421 31.1562C27.8683 33.311 23.1232 33.3046 19.2663 31.1605C18.6713 30.8205 17.953 30.727 17.2815 30.897C13.9878 31.7258 11.6864 34.7199 11.6864 38.1815V40.3299C11.6864 41.6601 12.1709 42.9351 13.0528 43.9169C13.4438 44.3546 13.4077 45.024 12.9699 45.4171C12.5343 45.8081 11.8649 45.772 11.4697 45.3342C10.2393 43.9615 9.56348 42.185 9.56348 40.3299V38.1815C9.56348 33.7466 12.5257 29.9025 16.763 28.8379C17.9594 28.5362 19.2535 28.7061 20.3096 29.3096C23.5141 31.0925 27.4773 31.0967 30.6988 29.3054C31.7464 28.7061 33.0405 28.5362 34.239 28.8379C38.4762 29.9004 41.4364 33.7424 41.4364 38.1794Z" fill="white"/>
</svg>
