<svg width="51" height="51" viewBox="0 0 51 51" fill="none" xmlns="http://www.w3.org/2000/svg">
<path d="M28.3744 23.5785C28.5139 23.718 28.5139 23.9446 28.3744 24.084L24.7997 27.6588C24.7296 27.7288 24.6381 27.7632 24.5466 27.7632C24.4551 27.7632 24.3636 27.7281 24.2935 27.6588L22.1486 25.5139C22.0092 25.3745 22.0092 25.1479 22.1486 25.0084C22.288 24.869 22.5147 24.869 22.6541 25.0084L24.5459 26.9002L27.8675 23.5785C28.0084 23.4391 28.2343 23.4391 28.3744 23.5785ZM32.0536 25.2615C32.0536 29.0065 29.0065 32.0536 25.2615 32.0536C21.5166 32.0536 18.4695 29.0065 18.4695 25.2615C18.4695 21.5166 21.5166 18.4695 25.2615 18.4695C29.0065 18.4695 32.0536 21.5159 32.0536 25.2615ZM31.3386 25.2615C31.3386 21.9106 28.6125 19.1844 25.2615 19.1844C21.9106 19.1844 19.1844 21.9106 19.1844 25.2615C19.1844 28.6125 21.9106 31.3386 25.2615 31.3386C28.6125 31.3386 31.3386 28.6125 31.3386 25.2615Z" fill="white"/>
<path d="M40.5046 15.6251L31.1249 6.24537C30.5235 5.64399 29.7224 5.3125 28.8702 5.3125H19.125C13.8529 5.3125 9.5625 9.60288 9.5625 14.875V36.125C9.5625 41.3971 13.8529 45.6874 19.125 45.6874H31.875C37.1471 45.6874 41.4375 41.3971 41.4375 36.125V17.8798C41.4396 17.0276 41.106 16.2265 40.5046 15.6251ZM30.8146 8.93774L37.8123 15.9354H35.0646C32.7208 15.9354 30.8146 14.0292 30.8146 11.6854V8.93774ZM31.8771 43.5604H19.1271C15.0259 43.5604 11.6896 40.2241 11.6896 36.1229V14.8729C11.6896 10.7716 15.0259 7.43536 19.1271 7.43536H28.6896V11.6854C28.6896 15.2001 31.5499 18.0604 35.0646 18.0604H39.3146V36.1229C39.3146 40.2241 35.9763 43.5604 31.8771 43.5604Z" fill="white"/>
</svg>
