<svg width="51" height="51" viewBox="0 0 51 51" fill="none" xmlns="http://www.w3.org/2000/svg">
<path d="M15.9375 21.25C15.9375 20.6635 16.4135 20.1875 17 20.1875H34C34.5865 20.1875 35.0625 20.6635 35.0625 21.25C35.0625 21.8365 34.5865 22.3125 34 22.3125H17C16.4135 22.3125 15.9375 21.8365 15.9375 21.25ZM19.125 15.9375H31.875C32.4615 15.9375 32.9375 15.4615 32.9375 14.875C32.9375 14.2885 32.4615 13.8125 31.875 13.8125H19.125C18.5385 13.8125 18.0625 14.2885 18.0625 14.875C18.0625 15.4615 18.5385 15.9375 19.125 15.9375ZM45.6875 28.6599V34C45.6875 39.2721 41.3971 43.5625 36.125 43.5625H14.875C9.60288 43.5625 5.3125 39.2721 5.3125 34V28.6599C5.3125 27.8587 5.44211 27.0661 5.69498 26.3075L9.80685 13.9762C11.1095 10.0662 14.7559 7.4375 18.8784 7.4375H32.1257C36.2482 7.4375 39.8927 10.0641 41.1974 13.9762L45.3093 26.3075C45.5579 27.0661 45.6875 27.8587 45.6875 28.6599ZM7.84761 26.5625H19.125C19.7115 26.5625 20.1875 27.0385 20.1875 27.625C20.1875 30.5533 22.5717 32.9375 25.5 32.9375C28.4283 32.9375 30.8125 30.5533 30.8125 27.625C30.8125 27.0385 31.2885 26.5625 31.875 26.5625H43.1524L39.1807 14.6476C38.165 11.6046 35.3302 9.5625 32.1257 9.5625H18.8784C15.6718 9.5625 12.8372 11.6046 11.8236 14.6476L7.84761 26.5625ZM43.5625 34V28.6875H32.861C32.3446 32.2873 29.24 35.0625 25.5 35.0625C21.76 35.0625 18.6554 32.2873 18.139 28.6875H7.4375V34C7.4375 38.1012 10.7738 41.4375 14.875 41.4375H36.125C40.2262 41.4375 43.5625 38.0991 43.5625 34Z" fill="white"/>
</svg>
