<svg width="51" height="51" viewBox="0 0 51 51" fill="none" xmlns="http://www.w3.org/2000/svg">
<path d="M36.125 7.4375H35.0625V6.375C35.0625 5.7885 34.5865 5.3125 34 5.3125C33.4135 5.3125 32.9375 5.7885 32.9375 6.375V7.4375H18.0625V6.375C18.0625 5.7885 17.5865 5.3125 17 5.3125C16.4135 5.3125 15.9375 5.7885 15.9375 6.375V7.4375H14.875C9.60288 7.4375 5.3125 11.7279 5.3125 17V36.125C5.3125 41.3971 9.60288 45.6875 14.875 45.6875H36.125C41.3971 45.6875 45.6875 41.3971 45.6875 36.125V17C45.6875 11.7257 41.3971 7.4375 36.125 7.4375ZM14.875 9.5625H15.9375V12.75C15.9375 13.3365 16.4135 13.8125 17 13.8125C17.5865 13.8125 18.0625 13.3365 18.0625 12.75V9.5625H32.9375V12.75C32.9375 13.3365 33.4135 13.8125 34 13.8125C34.5865 13.8125 35.0625 13.3365 35.0625 12.75V9.5625H36.125C40.2262 9.5625 43.5625 12.8988 43.5625 17V18.0625H7.4375V17C7.4375 12.8988 10.7738 9.5625 14.875 9.5625ZM36.125 43.5625H14.875C10.7738 43.5625 7.4375 40.2262 7.4375 36.125V20.1875H43.5625V36.125C43.5625 40.2241 40.2262 43.5625 36.125 43.5625ZM36.125 27.625C36.125 28.798 35.173 29.75 34 29.75C32.827 29.75 31.875 28.798 31.875 27.625C31.875 26.452 32.827 25.5 34 25.5C35.173 25.5 36.125 26.4499 36.125 27.625ZM27.625 27.625C27.625 28.798 26.673 29.75 25.5 29.75C24.327 29.75 23.375 28.798 23.375 27.625C23.375 26.452 24.327 25.5 25.5 25.5C26.673 25.5 27.625 26.4499 27.625 27.625ZM19.125 27.625C19.125 28.798 18.173 29.75 17 29.75C15.827 29.75 14.875 28.798 14.875 27.625C14.875 26.452 15.827 25.5 17 25.5C18.173 25.5 19.125 26.4499 19.125 27.625ZM36.125 36.125C36.125 37.298 35.173 38.25 34 38.25C32.827 38.25 31.875 37.298 31.875 36.125C31.875 34.952 32.827 34 34 34C35.173 34 36.125 34.9499 36.125 36.125ZM27.625 36.125C27.625 37.298 26.673 38.25 25.5 38.25C24.327 38.25 23.375 37.298 23.375 36.125C23.375 34.952 24.327 34 25.5 34C26.673 34 27.625 34.9499 27.625 36.125ZM19.125 36.125C19.125 37.298 18.173 38.25 17 38.25C15.827 38.25 14.875 37.298 14.875 36.125C14.875 34.952 15.827 34 17 34C18.173 34 19.125 34.9499 19.125 36.125Z" fill="white"/>
</svg>
