<svg width="51" height="51" viewBox="0 0 51 51" fill="none" xmlns="http://www.w3.org/2000/svg">
<path d="M25.5 26.5625C30.7721 26.5625 35.0625 22.2721 35.0625 17C35.0625 11.7279 30.7721 7.4375 25.5 7.4375C20.2279 7.4375 15.9375 11.7279 15.9375 17C15.9375 22.2721 20.2279 26.5625 25.5 26.5625ZM25.5 9.5625C29.6012 9.5625 32.9375 12.8988 32.9375 17C32.9375 21.1012 29.6012 24.4375 25.5 24.4375C21.3988 24.4375 18.0625 21.1012 18.0625 17C18.0625 12.8988 21.3988 9.5625 25.5 9.5625ZM39.3125 36.975V38.8152C39.3125 40.4409 38.7197 42.0006 37.6402 43.2076C37.4277 43.4414 37.1387 43.5625 36.8476 43.5625C36.5947 43.5625 36.3418 43.4732 36.1399 43.2926C35.7022 42.9016 35.6638 42.2301 36.0548 41.7924C36.7858 40.9764 37.1875 39.9203 37.1875 38.8174V36.975C37.1875 34.0786 35.2643 31.5711 32.5082 30.8784C31.9727 30.7403 31.3948 30.8167 30.9273 31.0845C27.5613 32.9566 23.4302 32.9503 20.0834 31.0888C19.6052 30.8168 19.0337 30.7381 18.4918 30.8762C15.7357 31.569 13.8125 34.0765 13.8125 36.9728V38.8132C13.8125 39.916 14.2142 40.9721 14.9452 41.7881C15.3362 42.2258 15.2978 42.8973 14.8601 43.2883C14.4266 43.6772 13.753 43.6432 13.3598 43.2054C12.2803 41.9984 11.6875 40.4388 11.6875 38.8132V36.975C11.6875 33.1032 14.2736 29.7479 17.9733 28.8171C19.04 28.5473 20.1854 28.7024 21.1268 29.2379C23.8213 30.7381 27.1682 30.7424 29.8818 29.2336C30.8125 28.7024 31.9622 28.5515 33.0247 28.8193C36.7264 29.7479 39.3125 33.1032 39.3125 36.975ZM37.247 8.5085C37.4447 7.95387 38.0502 7.67126 38.6049 7.86039C41.5714 8.90801 43.5625 11.7279 43.5625 14.875C43.5625 16.9894 42.6594 19.0081 41.0826 20.417C40.8808 20.5976 40.6279 20.6868 40.375 20.6868C40.0839 20.6868 39.7928 20.5679 39.5824 20.332C39.1914 19.8942 39.2296 19.2227 39.6674 18.8317C40.7915 17.8245 41.4375 16.3816 41.4375 14.8729C41.4375 12.6246 40.0138 10.6122 37.8951 9.86425C37.3426 9.66875 37.0537 9.061 37.247 8.5085ZM45.6875 31.5201V33.0544C45.6875 33.6409 45.2115 34.1169 44.625 34.1169C44.0385 34.1169 43.5625 33.6409 43.5625 33.0544V31.5201C43.5625 29.1869 42.0134 27.1681 39.7971 26.6114C39.2276 26.469 38.8832 25.891 39.0256 25.3236C39.1701 24.7541 39.7375 24.4056 40.3155 24.5522C43.4775 25.3448 45.6875 28.2115 45.6875 31.5201ZM9.91736 21.3605C8.34273 19.9495 7.4375 17.9308 7.4375 15.8185C7.4375 12.6714 9.43077 9.85151 12.3951 8.80389C12.9498 8.61264 13.5532 8.89737 13.753 9.452C13.9485 10.0045 13.6574 10.6122 13.1049 10.8077C10.9862 11.5557 9.5625 13.5681 9.5625 15.8164C9.5625 17.3251 10.2085 18.768 11.3326 19.7752C11.7704 20.1662 11.8086 20.8377 11.4176 21.2755C11.2051 21.5092 10.9161 21.6303 10.625 21.6303C10.3721 21.6325 10.1192 21.5433 9.91736 21.3605ZM11.2029 27.557C8.98657 28.1137 7.4375 30.1325 7.4375 32.4658V34C7.4375 34.5865 6.9615 35.0625 6.375 35.0625C5.7885 35.0625 5.3125 34.5865 5.3125 34V32.4658C5.3125 29.1572 7.52253 26.2905 10.6845 25.4957C11.2583 25.3512 11.8299 25.6997 11.9744 26.2671C12.1168 26.8366 11.7724 27.4125 11.2029 27.557Z" fill="white"/>
</svg>
