<svg width="43" height="47" viewBox="0 0 43 47" fill="none" xmlns="http://www.w3.org/2000/svg">
<path d="M30 46.3438H13C0.78125 46.3438 0.78125 39.8625 0.78125 34.125V32C0.78125 27.2613 0.78125 21.9062 10.875 21.9062C13.4038 21.9062 14.3387 22.5225 15.6562 23.5C15.72 23.5638 15.805 23.6063 15.8688 23.6913L18.0362 25.9862C19.8638 27.92 23.1787 27.92 25.0062 25.9862L27.1737 23.6913C27.2375 23.6275 27.3013 23.5638 27.3863 23.5C28.7038 22.5013 29.6388 21.9062 32.1675 21.9062C42.2612 21.9062 42.2612 27.2613 42.2612 32V34.125C42.2188 42.2425 38.1175 46.3438 30 46.3438ZM10.875 25.0938C3.96875 25.0938 3.96875 27.2613 3.96875 32V34.125C3.96875 39.9475 3.96875 43.1562 13 43.1562H30C36.3325 43.1562 39.0312 40.4575 39.0312 34.125V32C39.0312 27.2613 39.0312 25.0938 32.125 25.0938C30.595 25.0938 30.2762 25.285 29.3625 25.965L27.3012 28.1537C25.7712 29.7687 23.71 30.6613 21.5 30.6613C19.29 30.6613 17.2288 29.7687 15.6988 28.1537L13.6375 25.965C12.7238 25.285 12.405 25.0938 10.875 25.0938Z" fill="white"/>
<path d="M36.375 25.0938C35.5037 25.0938 34.7812 24.3713 34.7812 23.5V10.75C34.7812 6.01125 34.7812 3.84375 27.875 3.84375H15.125C8.21875 3.84375 8.21875 6.01125 8.21875 10.75V23.5C8.21875 24.3713 7.49625 25.0938 6.625 25.0938C5.75375 25.0938 5.03125 24.3713 5.03125 23.5V10.75C5.03125 6.01125 5.03125 0.65625 15.125 0.65625H27.875C37.9688 0.65625 37.9688 6.01125 37.9688 10.75V23.5C37.9688 24.3713 37.2463 25.0938 36.375 25.0938Z" fill="white"/>
<path d="M25.4942 19.207H18.418C17.5467 19.207 16.8242 18.4845 16.8242 17.6133C16.8242 16.742 17.5467 16.0195 18.418 16.0195H25.4942C26.3655 16.0195 27.088 16.742 27.088 17.6133C27.088 18.4845 26.3867 19.207 25.4942 19.207Z" fill="white"/>
<path d="M27.2792 12.832H16.6543C15.783 12.832 15.0605 12.1095 15.0605 11.2383C15.0605 10.367 15.783 9.64453 16.6543 9.64453H27.2792C28.1505 9.64453 28.873 10.367 28.873 11.2383C28.873 12.1095 28.1717 12.832 27.2792 12.832Z" fill="white"/>
</svg>
