<svg width="24" height="24" viewBox="0 0 24 24" fill="none" xmlns="http://www.w3.org/2000/svg">
<path d="M11.1169 3.66277C11.4929 2.95486 12.5073 2.95486 12.8833 3.66277L14.8393 7.34562C14.9838 7.61777 15.2458 7.80807 15.5493 7.86144L19.6563 8.58368C20.4458 8.7225 20.7592 9.68721 20.2021 10.2635L17.304 13.2619C17.0898 13.4834 16.9898 13.7914 17.0328 14.0965L17.6151 18.2257C17.727 19.0194 16.9063 19.6156 16.1861 19.2639L12.4389 17.4342C12.162 17.2989 11.8382 17.2989 11.5613 17.4342L7.81412 19.2639C7.09384 19.6156 6.27321 19.0194 6.38513 18.2257L6.96739 14.0965C7.01042 13.7914 6.91037 13.4834 6.69621 13.2619L3.79806 10.2635C3.24098 9.68721 3.55444 8.7225 4.34389 8.58368L8.45093 7.86144C8.75442 7.80807 9.01636 7.61776 9.1609 7.34562L11.1169 3.66277Z" stroke="#36B9CC" stroke-width="1.5"/>
</svg>
