<svg width="76" height="76" viewBox="0 0 76 76" fill="none" xmlns="http://www.w3.org/2000/svg">
<path d="M35.2031 11.599C36.3938 9.3573 39.6061 9.3573 40.7967 11.599L46.9907 23.2614C47.4483 24.1232 48.278 24.7258 49.2391 24.8948L62.2446 27.1819C64.7447 27.6215 65.7371 30.6764 63.9729 32.5015L54.7956 41.9964C54.1173 42.6978 53.8007 43.6731 53.9368 44.6393L55.7808 57.7151C56.1351 60.2285 53.5362 62.1164 51.2556 61.0027L39.3895 55.2087C38.5126 54.7802 37.4873 54.7802 36.6104 55.2087L24.7444 61.0027C22.4635 62.1164 19.8648 60.2285 20.2192 57.7151L22.0631 44.6393C22.1993 43.6731 21.8825 42.6978 21.2043 41.9964L12.0269 32.5015C10.2628 30.6764 11.2554 27.6215 13.7553 27.1819L26.7609 24.8948C27.722 24.7258 28.5515 24.1231 29.0092 23.2614L35.2031 11.599Z" stroke="#E700DD" stroke-width="1.5"/>
</svg>
