<svg width="36" height="36" viewBox="0 0 36 36" fill="none" xmlns="http://www.w3.org/2000/svg">
<path d="M31.5 8.96997C26.505 8.47497 21.48 8.21997 16.47 8.21997C13.5 8.21997 10.53 8.36997 7.56 8.66997L4.5 8.96997" stroke="white" stroke-width="1.5" stroke-linecap="round" stroke-linejoin="round"/>
<path d="M12.75 7.455L13.08 5.49C13.32 4.065 13.5 3 16.035 3H19.965C22.5 3 22.695 4.125 22.92 5.505L23.25 7.455" stroke="white" stroke-width="1.5" stroke-linecap="round" stroke-linejoin="round"/>
<path d="M28.2749 13.71L27.2999 28.815C27.1349 31.17 26.9999 33 22.8149 33H13.1849C8.99985 33 8.86485 31.17 8.69985 28.815L7.72485 13.71" stroke="white" stroke-width="1.5" stroke-linecap="round" stroke-linejoin="round"/>
<path d="M15.4944 24.75H20.4894" stroke="white" stroke-width="1.5" stroke-linecap="round" stroke-linejoin="round"/>
<path d="M14.25 18.75H21.75" stroke="white" stroke-width="1.5" stroke-linecap="round" stroke-linejoin="round"/>
</svg>
