<svg width="52" height="52" viewBox="0 0 52 52" fill="none" xmlns="http://www.w3.org/2000/svg">
<path d="M16.7423 5.95825C14.3763 5.95825 12.4583 7.87632 12.4583 10.2423V21.6666C12.4583 29.1455 18.5211 35.2082 25.9999 35.2082C33.4788 35.2082 39.5416 29.1455 39.5416 21.6666V10.2423C39.5416 7.87632 37.6234 5.95825 35.2574 5.95825H16.7423Z" stroke="#2BCCA2" stroke-width="1.5"/>
<path d="M26 36.8333V38.9999" stroke="#2BCCA2" stroke-width="1.5" stroke-linecap="round"/>
<path d="M32.5001 40.625H19.5001C18.0043 40.625 16.7917 41.8376 16.7917 43.3333C16.7917 44.8291 18.0043 46.0417 19.5001 46.0417H32.5001C33.9959 46.0417 35.2084 44.8291 35.2084 43.3333C35.2084 41.8376 33.9959 40.625 32.5001 40.625Z" stroke="#2BCCA2" stroke-width="1.5"/>
<path d="M11.9167 10.8333C8.92513 10.8333 6.5 13.2584 6.5 16.2499V16.9615C6.5 18.5868 7.14564 20.1456 8.29493 21.2949L13 25.9999" stroke="#2BCCA2" stroke-width="1.5" stroke-linecap="round" stroke-linejoin="round"/>
<path d="M40.0833 10.8333C43.0749 10.8333 45.5 13.2584 45.5 16.2499V16.9615C45.5 18.5868 44.8543 20.1456 43.7051 21.2949L39 25.9999" stroke="#2BCCA2" stroke-width="1.5" stroke-linecap="round" stroke-linejoin="round"/>
</svg>
