<svg width="51" height="51" viewBox="0 0 51 51" fill="none" xmlns="http://www.w3.org/2000/svg">
<path d="M25.5 27.0948C31.0654 27.0948 35.5938 22.5664 35.5938 17.001C35.5938 11.4357 31.0654 6.90729 25.5 6.90729C19.9346 6.90729 15.4062 11.4357 15.4062 17.001C15.4062 22.5664 19.9346 27.0948 25.5 27.0948ZM25.5 10.0948C29.308 10.0948 32.4062 13.193 32.4062 17.001C32.4062 20.809 29.308 23.9073 25.5 23.9073C21.692 23.9073 18.5938 20.809 18.5938 17.001C18.5938 13.193 21.692 10.0948 25.5 10.0948ZM39.8438 36.9761V38.8163C39.8438 40.5736 39.1999 42.2588 38.0333 43.5615C37.7209 43.9142 37.2831 44.0927 36.8454 44.0927C36.465 44.0927 36.0867 43.9588 35.7829 43.6868C35.1262 43.1003 35.0711 42.0931 35.6576 41.4365C36.2993 40.7182 36.6542 39.7874 36.6542 38.8163V36.9761C36.6542 34.322 34.8947 32.027 32.3765 31.3959C31.9643 31.2918 31.535 31.349 31.1843 31.5466C27.6526 33.5143 23.3261 33.5059 19.822 31.5552C19.4544 31.3469 19.0252 31.2937 18.6193 31.3936C16.0991 32.0268 14.3395 34.322 14.3395 36.9761V38.8163C14.3395 39.7874 14.6943 40.7182 15.3361 41.4365C15.9226 42.0931 15.8674 43.1003 15.2108 43.6868C14.5563 44.2711 13.5469 44.2181 12.9604 43.5615C11.7937 42.2588 11.1499 40.5715 11.1499 38.8163V36.9761C11.1499 32.86 13.8996 29.2941 17.8372 28.3018C19.0272 28 20.3256 28.1721 21.3818 28.7778C23.9126 30.1845 27.0576 30.193 29.6182 28.7692C30.6595 28.1721 31.9536 27.9978 33.1499 28.3038C37.0939 29.2941 39.8438 32.86 39.8438 36.9761ZM36.7477 8.33321C37.0409 7.50446 37.9504 7.06876 38.7812 7.36201C41.9581 8.48401 44.0938 11.5037 44.0938 14.876C44.0938 17.1413 43.1248 19.3046 41.4375 20.8155C41.1315 21.0875 40.7533 21.2212 40.375 21.2212C39.9373 21.2212 39.5016 21.0427 39.1871 20.69C38.6006 20.0333 38.6559 19.0262 39.3125 18.4397C40.3261 17.5344 40.9062 16.236 40.9062 14.876C40.9062 12.853 39.6249 11.0405 37.7188 10.3669C36.8879 10.0736 36.4544 9.16196 36.7477 8.33321ZM46.2188 31.5212V33.0555C46.2188 33.9353 45.5047 34.6493 44.625 34.6493C43.7453 34.6493 43.0312 33.9353 43.0312 33.0555V31.5212C43.0312 29.4323 41.6479 27.626 39.6674 27.1288C38.8152 26.9141 38.2946 26.0492 38.5093 25.1949C38.726 24.3407 39.5951 23.8245 40.443 24.037C43.8451 24.8912 46.2188 27.9682 46.2188 31.5212ZM9.5625 21.7589C7.87525 20.2481 6.90625 18.0847 6.90625 15.8195C6.90625 12.4471 9.04188 9.42745 12.2188 8.30545C13.056 8.0122 13.9591 8.44789 14.2523 9.27664C14.5456 10.1075 14.1121 11.0171 13.2812 11.3103C11.3751 11.984 10.0938 13.7965 10.0938 15.8195C10.0938 17.1773 10.6739 18.4757 11.6875 19.3831C12.3441 19.9696 12.3994 20.977 11.8129 21.6337C11.5005 21.9864 11.0628 22.1649 10.625 22.1649C10.2467 22.1649 9.86638 22.0309 9.5625 21.7589ZM11.3326 28.0722C9.35214 28.5695 7.96875 30.3757 7.96875 32.4646V34.001C7.96875 34.8808 7.25475 35.5948 6.375 35.5948C5.49525 35.5948 4.78125 34.8808 4.78125 34.001V32.4667C4.78125 28.9137 7.15704 25.8368 10.557 24.9825C11.4092 24.7743 12.2761 25.2865 12.4907 26.1407C12.7054 26.9907 12.1869 27.8576 11.3326 28.0722Z" fill="white"/>
</svg>
