<svg width="34" height="43" viewBox="0 0 34 43" fill="none" xmlns="http://www.w3.org/2000/svg">
<path d="M17 23.6499C23.4451 23.6499 28.6875 18.3438 28.6875 11.825C28.6875 5.30619 23.4451 0 17 0C10.5549 0 5.3125 5.30619 5.3125 11.825C5.3125 18.3438 10.5549 23.6499 17 23.6499ZM17 4.29999C21.1012 4.29999 24.4375 7.67548 24.4375 11.825C24.4375 15.9745 21.1012 19.3499 17 19.3499C12.8988 19.3499 9.5625 15.9745 9.5625 11.825C9.5625 7.67548 12.8988 4.29999 17 4.29999ZM34 34.329V36.5027C34 38.6441 33.2264 40.6972 31.8218 42.2839C31.4011 42.7591 30.821 42.9999 30.2366 42.9999C29.733 42.9999 29.2251 42.8193 28.8193 42.4516C27.9438 41.6604 27.8715 40.2995 28.6535 39.4159C29.359 38.6182 29.7479 37.582 29.7479 36.5027V34.329C29.7479 31.3212 27.7779 28.7197 24.9602 28.0037C24.5522 27.9005 24.1166 27.952 23.7681 28.1541C19.5585 30.5234 14.4202 30.5105 10.2509 28.167C9.88332 27.9541 9.44989 27.9005 9.04189 28.0037C6.21776 28.7197 4.25 31.3212 4.25 34.329V36.5027C4.25 37.5841 4.63891 38.6182 5.34441 39.4159C6.12641 40.2995 6.05202 41.6604 5.17865 42.4516C4.30315 43.245 2.96018 43.1676 2.17818 42.2839C0.773552 40.6972 0 38.6441 0 36.5027V34.329C0 29.3475 3.29169 25.0302 8.00494 23.8326C9.46481 23.4564 11.0458 23.6737 12.3378 24.4197C15.2044 26.0279 18.7765 26.0408 21.6835 24.4068C22.9563 23.6694 24.5373 23.4543 25.9993 23.8305C30.7083 25.0302 34 29.3454 34 34.329Z" fill="white"/>
</svg>
